PathFileType	4	(X/Y/Z)	 s02c0402.trc
DataRate	CameraRate	NumFrames	NumMarkers	Units	OrigDataRate	OrigDataStartFrame	OrigNumFrames
200	200	5	50	mm	200	1251	2000
Frame#	Time	racr			lacr			c7			jug			rlel			rdr			llel			ldr			s2			lic			ric			lasi			rasi			rpsi			lpsi			rgt			lgt			rth1			rth2			rth3			rth4			rlfc			rmfc			rsh1			rsh2			rsh3			rsh4			rlmal			rmmal			rtoe			rmt5			rmt1			lth1			lth2			lth4			lth3			llfc			lmfc			lsh1			lsh2			lsh3			lsh4			llmal			lmmal			lcal			ltoe			lmt5			SBIKE			LBIKE			RBIKE			
		X1	Y1	Z1	X2	Y2	Z2	X3	Y3	Z3	X4	Y4	Z4	X5	Y5	Z5	X6	Y6	Z6	X7	Y7	Z7	X8	Y8	Z8	X9	Y9	Z9	X10	Y10	Z10	X11	Y11	Z11	X12	Y12	Z12	X13	Y13	Z13	X14	Y14	Z14	X15	Y15	Z15	X16	Y16	Z16	X17	Y17	Z17	X18	Y18	Z18	X19	Y19	Z19	X20	Y20	Z20	X21	Y21	Z21	X22	Y22	Z22	X23	Y23	Z23	X24	Y24	Z24	X25	Y25	Z25	X26	Y26	Z26	X27	Y27	Z27	X28	Y28	Z28	X29	Y29	Z29	X30	Y30	Z30	X31	Y31	Z31	X32	Y32	Z32	X33	Y33	Z33	X34	Y34	Z34	X35	Y35	Z35	X36	Y36	Z36	X37	Y37	Z37	X38	Y38	Z38	X39	Y39	Z39	X40	Y40	Z40	X41	Y41	Z41	X42	Y42	Z42	X43	Y43	Z43	X44	Y44	Z44	X45	Y45	Z45	X46	Y46	Z46	X47	Y47	Z47	X48	Y48	Z48	X49	Y49	Z49	X50	Y50	Z50	
1251	6.2550	668.471394	1207.799798	-150.418342	660.502092	1150.281257	-524.590781	689.638333	1244.446057	-358.391994	608.926247	1138.352905	-323.667191	556.262315	986.254926	-35.616095	684.139149	863.834861	-119.685819	519.332219	948.550994	-650.749742	669.132823	875.823576	-523.185395	133.500248	1150.170339	-337.184705	276.746739	1117.550987	-470.517059	263.633248	1156.877892	-179.226313	316.416040	1090.011271	-435.840895	316.165047	1120.431505	-196.783444	164.342147	1186.533091	-286.593207	172.294674	1182.220720	-372.808830	242.723845	1074.265030	-132.271779	216.118492	1040.262728	-488.722955	327.241383	1025.052597	-132.777553	408.121621	989.004567	-138.616192	463.269534	927.174875	-115.766486	424.512503	1008.216973	-166.862010	537.004405	804.704415	-144.542632	517.183257	786.697321	-254.459315	464.535743	718.412123	-126.888193	401.105826	656.074468	-144.423667	320.968447	628.334830	-135.764906	409.076207	646.622462	-181.724165	213.105269	573.848022	-136.716405	236.768693	584.580695	-217.576819	271.306083	354.960918	-188.409990	205.143369	441.716302	-128.766968	230.067367	425.671242	-236.880208	311.107392	933.248971	-506.687763	370.828344	869.937787	-502.727630	400.672645	886.708420	-490.032919	389.883916	783.381783	-501.986085	437.306335	695.445083	-480.244253	441.817146	664.867771	-381.256073	414.340833	591.827979	-501.715354	418.501105	506.920762	-486.695643	375.547643	426.708264	-485.601460	437.129468	505.838954	-449.690171	335.719795	329.652505	-471.749070	352.625438	323.960202	-394.714084	264.025157	296.450258	-431.400218	536.990318	198.140603	-440.622670	427.917215	211.879425	-499.234137	-162.127373	860.053978	-310.462868	37.188198	86.382653	-514.262775	33.846058	83.222663	-114.202220	
1252	6.2600	667.485458	1208.529273	-148.737600	661.720923	1150.829509	-522.412042	689.719379	1245.380475	-356.182742	609.823744	1139.194511	-321.191004	556.363146	985.764934	-35.214072	684.132919	863.813891	-119.921498	519.209355	949.435641	-649.680745	669.348630	875.578629	-523.171419	134.260146	1148.562675	-338.933802	277.764651	1115.886569	-470.899049	262.915504	1156.255660	-180.172292	317.294917	1087.454204	-435.993120	315.979202	1119.979264	-197.291332	164.447060	1184.749051	-288.834977	172.761098	1180.205058	-374.655649	243.050178	1074.688663	-133.147128	216.628185	1037.286657	-489.340575	328.188275	1027.087020	-133.587458	409.911053	993.164233	-139.879205	466.988814	932.838820	-117.352742	425.371013	1012.353757	-168.711269	544.035559	811.958294	-146.462544	524.275896	794.526049	-256.351861	472.162688	725.385323	-129.321482	408.298506	663.409509	-146.674802	328.132535	635.982972	-137.388945	415.875990	654.028016	-184.072682	220.267203	582.159935	-137.710492	243.198193	592.765997	-218.663238	279.468784	363.789561	-188.672298	212.349853	450.030623	-129.950808	237.081554	435.231527	-236.397117	309.377628	928.105071	-507.131407	367.523139	863.328709	-502.940571	397.778177	879.395558	-490.227928	384.630395	776.541372	-502.036744	429.542063	687.690764	-480.429436	433.044525	656.953111	-381.860094	406.116111	584.655048	-502.196594	410.676171	499.817322	-487.218698	367.988363	419.373928	-485.906988	429.368885	499.023717	-450.503019	329.212772	322.257925	-471.889604	345.878802	316.612317	-394.934474	257.410353	289.989806	-431.519500	529.385306	188.669670	-440.571329	420.557747	203.602147	-499.241709	-162.153498	860.120765	-310.499047	37.188928	86.307977	-514.296015	33.371430	83.616470	-114.263931	
1253	6.2650	666.490231	1209.074185	-146.963450	662.582832	1151.408874	-520.948036	689.732113	1246.158975	-353.983512	609.771472	1139.879263	-319.508305	556.029654	985.436023	-34.321896	684.125684	863.880655	-120.083778	519.118784	950.373479	-648.604674	669.574518	875.250785	-523.055422	135.036891	1147.008692	-340.689242	278.800226	1114.195076	-471.277136	262.126598	1155.622397	-181.163081	318.165144	1084.919243	-436.039906	315.832276	1119.873937	-197.851853	164.844647	1182.644910	-291.413307	173.125663	1178.182299	-376.497812	243.114445	1075.387318	-133.825899	216.843057	1033.906616	-489.629662	328.865544	1029.071701	-134.162695	411.501060	997.182938	-141.319483	470.712085	938.708441	-119.336064	426.129006	1016.665081	-170.406048	550.776112	818.867322	-148.848362	530.367781	801.757017	-259.258620	479.658215	732.534609	-131.869587	415.569011	670.819704	-148.903228	335.694156	643.570922	-138.974221	422.922250	661.480673	-186.280986	227.601713	589.998868	-138.797358	249.748575	600.671210	-219.821603	288.342128	372.319881	-188.782564	220.711275	457.951113	-130.495235	244.803443	443.492244	-236.605075	307.426817	923.286142	-507.680007	364.033657	857.165652	-503.101648	394.657765	872.499235	-490.675247	379.049294	769.916721	-502.212276	421.716879	680.478723	-480.860702	423.647018	650.098294	-382.284612	397.870347	578.238550	-502.842500	402.702741	493.328714	-487.758873	360.262227	412.837138	-486.373807	421.529596	492.631690	-451.145104	322.345360	315.488154	-472.193663	338.989066	309.784878	-395.073578	250.446285	284.104697	-431.662344	521.335277	179.804887	-440.548526	412.678384	195.910710	-499.238146	-162.211684	860.005996	-310.683061	37.189775	86.257743	-514.333679	33.840190	83.202492	-114.215425	
1254	6.2700	665.439735	1209.506318	-145.154121	663.416630	1152.065216	-519.377611	689.741165	1246.775721	-351.784163	609.588584	1140.503953	-317.814639	555.718515	984.955777	-33.609217	684.093072	863.975967	-120.216896	519.102766	951.391178	-647.492413	669.813139	874.842267	-522.985369	135.992194	1145.333000	-342.425801	279.851567	1112.479462	-471.650843	261.315895	1154.868076	-182.115342	319.552809	1082.294812	-436.960846	315.696446	1119.773212	-198.383391	165.181217	1180.617603	-293.790221	173.507632	1176.182414	-378.207607	243.064057	1075.819815	-134.592173	217.005274	1031.108796	-490.006219	329.667360	1031.046755	-134.629636	412.825986	1001.152952	-142.870410	472.747466	944.395714	-120.673543	426.696782	1020.992667	-172.116093	556.994416	827.914449	-150.971703	536.588019	809.417821	-262.018506	486.982878	739.838862	-134.358948	423.202824	678.621237	-150.502374	342.985909	650.752071	-140.838589	429.792936	669.042097	-188.515822	234.936649	597.334163	-139.883262	256.371792	607.971039	-221.008459	297.741688	380.512630	-188.967380	229.845268	465.573800	-130.208226	253.656511	449.904321	-237.653120	305.114412	918.945398	-508.260348	360.248866	851.555913	-503.725617	391.281640	866.251816	-491.112729	373.273223	763.847391	-502.440147	414.011550	674.019881	-481.565456	414.784805	644.395677	-382.922211	389.667064	572.297871	-503.598164	394.755020	487.641742	-488.716656	352.418554	406.918099	-486.875144	413.667995	486.851694	-451.940770	315.149205	309.320314	-472.543327	331.653747	303.651452	-395.363671	243.215159	278.851417	-431.773997	512.893341	171.473029	-440.474630	404.411485	188.795826	-499.252278	-162.269181	860.010514	-310.644683	37.184856	86.247541	-514.331310	33.830520	83.200790	-114.236059	
1255	6.2750	664.411763	1209.756309	-143.297088	664.267055	1152.798367	-517.632498	689.773016	1247.305776	-349.522865	609.405064	1141.046589	-316.109287	555.352651	984.251959	-33.089561	683.986750	864.126349	-120.319717	519.136873	952.523135	-646.305368	669.995070	874.409824	-522.967336	137.090836	1143.594368	-344.185763	280.916778	1110.742683	-472.019696	260.608048	1154.278815	-182.926043	320.429442	1080.018061	-436.987172	315.565044	1119.855986	-198.887917	163.631272	1179.643182	-294.319099	173.733796	1174.167900	-379.806503	243.119633	1075.994027	-135.422610	217.287972	1029.351886	-490.820390	330.361753	1033.034470	-135.365578	414.088125	1005.076308	-144.608187	475.319957	950.183644	-122.466970	427.192701	1025.279333	-173.917943	562.943723	835.922606	-153.265176	542.304337	816.959412	-264.414551	493.991496	747.152836	-136.857423	430.813740	686.295968	-151.904217	349.915400	657.731326	-142.560371	437.759862	677.116467	-189.313716	242.261551	604.183206	-140.973542	262.902308	615.185757	-222.071831	309.115627	389.608796	-187.340600	238.808954	472.703882	-130.377875	262.717548	457.034077	-238.172852	302.586268	915.165754	-508.928721	356.304986	846.611414	-504.436387	387.661589	860.649802	-491.934099	367.433709	758.650037	-503.179380	406.277513	668.402291	-482.399850	406.866043	639.264336	-383.529933	381.573634	566.967920	-504.412287	386.759098	482.189211	-489.321871	344.415447	401.748607	-487.913240	405.807921	481.608341	-452.819938	307.638105	303.842746	-472.945918	324.057029	298.181741	-395.758739	235.565986	274.444675	-432.079579	503.950559	163.604706	-440.423370	395.753544	182.285667	-499.230140	-162.235124	859.025683	-313.633432	37.175857	86.214884	-514.343563	33.821771	83.217437	-114.225354	
